<svg width="40" height="40" viewBox="0 0 40 40" fill="none" xmlns="http://www.w3.org/2000/svg">
<path d="M36.25 7.5H30V3.75C30 1.67969 28.3203 0 26.25 0H13.75C11.6797 0 10 1.67969 10 3.75V7.5H3.75C1.67969 7.5 0 9.17969 0 11.25V33.75C0 35.8203 1.67969 37.5 3.75 37.5H36.25C38.3203 37.5 40 35.8203 40 33.75V11.25C40 9.17969 38.3203 7.5 36.25 7.5ZM13.75 3.75H26.25V7.5H13.75V3.75ZM28.75 24.5312C28.75 25.2216 28.1903 25.7812 27.5 25.7812H23.2812V30C23.2812 30.6903 22.7216 31.25 22.1016 31.25H18.0391C17.3488 31.25 16.7891 30.6903 16.7891 30V25.8516H12.5C11.8097 25.8516 11.25 25.2919 11.25 24.6016V20.5391C11.25 19.8486 11.8097 19.2891 12.5 19.2891H16.6484V15C16.6484 14.3095 17.2082 13.75 17.8984 13.75H21.9609C22.6513 13.75 23.1406 14.3095 23.1406 15V19.2188H27.5C28.1903 19.2188 28.75 19.7783 28.75 20.4688V24.5312Z" fill="#FDFBFB"/>
</svg>
