<svg width="20" height="20" viewBox="0 0 20 20" fill="none" xmlns="http://www.w3.org/2000/svg">
<path d="M9.8 0C4.39643 0 0 4.39643 0 9.8C0 15.2036 4.39643 19.6 9.8 19.6C15.2036 19.6 19.6 15.2036 19.6 9.8C19.6 4.39643 15.2036 0 9.8 0ZM9.8 1.50769C14.3887 1.50769 18.0923 5.21134 18.0923 9.8C18.0923 14.3887 14.3887 18.0923 9.8 18.0923C5.21134 18.0923 1.50769 14.3887 1.50769 9.8C1.50769 5.21134 5.21134 1.50769 9.8 1.50769ZM6.95046 5.86492L5.86492 6.95046L8.71748 9.8L5.86643 12.6495L6.95197 13.7351L9.8 10.8833L12.6495 13.7328L13.7351 12.6495L10.8833 9.8L13.7328 6.95046L12.6495 5.86492L9.8 8.71748L6.95046 5.86643V5.86492Z" fill="#FF0000"/>
</svg>
