<svg width="18" height="17" viewBox="0 0 18 17" fill="none" xmlns="http://www.w3.org/2000/svg">
<path d="M9.87156 0.0036C9.85356 0.0018 9.83556 0 9.81756 0C9.33876 0 9.00756 0.3879 9.00756 0.86652C9.00756 1.33812 9.19116 1.72152 9.91116 1.73142V1.73412C13.331 1.78092 16.3224 4.70214 16.3224 8.28756C16.3224 11.9018 13.3544 14.8842 9.74016 14.8842C6.29064 14.8842 3.42702 12.2814 3.17484 8.86176H4.69674L2.34792 4.95702L0 8.86194H1.44C1.69452 13.1816 5.30694 16.6158 9.71136 16.6158C14.2814 16.6158 18 12.8792 18 8.30844C18 3.79242 14.3676 0.0891 9.87156 0.0036Z" fill="#173FD4"/>
<path d="M9.7409 12.4961C10.0271 12.4961 10.2611 12.7283 10.2611 13.0163C10.2611 13.3045 10.0271 13.5365 9.7409 13.5365C9.4538 13.5365 9.2207 13.3045 9.2207 13.0163C9.22088 12.7283 9.45398 12.4961 9.7409 12.4961Z" fill="#173FD4"/>
<path d="M13.1766 4.63672C13.4646 4.63672 13.6968 4.86982 13.6968 5.15692C13.6968 5.44402 13.4646 5.67622 13.1766 5.67622C12.8904 5.67622 12.6582 5.44402 12.6582 5.15692C12.6582 4.86982 12.8904 4.63672 13.1766 4.63672Z" fill="#173FD4"/>
<path d="M13.1766 10.875C13.4646 10.875 13.6968 11.109 13.6968 11.3952C13.6968 11.6814 13.4646 11.9156 13.1766 11.9156C12.8904 11.9156 12.6582 11.6814 12.6582 11.3952C12.6582 11.109 12.8904 10.875 13.1766 10.875Z" fill="#173FD4"/>
<path d="M14.3309 7.81445C14.6189 7.81445 14.8511 8.04665 14.8511 8.33375C14.8511 8.62085 14.6189 8.85395 14.3309 8.85395C14.0427 8.85395 13.8125 8.62085 13.8125 8.33375C13.8125 8.04665 14.0429 7.81445 14.3309 7.81445Z" fill="#173FD4"/>
<path d="M10.6305 4.03905C10.6305 3.63135 10.3031 3.28125 9.89631 3.28125H9.73773C9.33093 3.28125 9.01071 3.63135 9.01071 4.03905V8.39577L6.87681 10.5259C6.56181 10.8409 6.57801 11.3521 6.87591 11.6653C7.17471 11.9821 7.69833 11.9821 8.01333 11.6653L10.3713 9.30729C10.3893 9.28749 10.4037 9.26769 10.4217 9.24969C10.5513 9.11559 10.6303 8.93379 10.6303 8.73309V4.03905H10.6305Z" fill="#173FD4"/>
</svg>
