<svg width="20" height="20" viewBox="0 0 20 20" fill="none" xmlns="http://www.w3.org/2000/svg">
<path d="M18.496 3.627C18.9357 3.78152 19.3166 4.06877 19.586 4.44907C19.8554 4.82937 20.0001 5.28394 20 5.75V15.75C20 16.8772 19.5522 17.9582 18.7552 18.7552C17.9582 19.5522 16.8772 20 15.75 20H5.75C5.28394 20.0001 4.82937 19.8554 4.44907 19.586C4.06877 19.3166 3.78152 18.9357 3.627 18.496L5.724 18.5H15.75C16.4793 18.5 17.1788 18.2103 17.6945 17.6945C18.2103 17.1788 18.5 16.4793 18.5 15.75V5.75L18.496 5.699V3.627ZM15.246 0C15.8427 0 16.415 0.237053 16.837 0.65901C17.2589 1.08097 17.496 1.65326 17.496 2.25V15.247C17.496 15.8437 17.2589 16.416 16.837 16.838C16.415 17.2599 15.8427 17.497 15.246 17.497H2.25C1.65326 17.497 1.08097 17.2599 0.65901 16.838C0.237053 16.416 0 15.8437 0 15.247V2.25C0 1.65326 0.237053 1.08097 0.65901 0.65901C1.08097 0.237053 1.65326 0 2.25 0H15.247H15.246ZM15.246 1.5H2.25C2.05109 1.5 1.86032 1.57902 1.71967 1.71967C1.57902 1.86032 1.5 2.05109 1.5 2.25V15.247C1.5 15.661 1.836 15.997 2.25 15.997H15.247C15.4459 15.997 15.6367 15.918 15.7773 15.7773C15.918 15.6367 15.997 15.4459 15.997 15.247V2.25C15.997 2.05109 15.918 1.86032 15.7773 1.71967C15.6367 1.57902 15.4459 1.5 15.247 1.5H15.246ZM7.581 9.358L11.47 5.47C11.604 5.33704 11.7832 5.2595 11.9719 5.25286C12.1605 5.24622 12.3447 5.31096 12.4878 5.43416C12.6308 5.55736 12.7221 5.72997 12.7434 5.91752C12.7648 6.10508 12.7147 6.29379 12.603 6.446L12.53 6.53L8.03 11.03C7.89007 11.1698 7.7006 11.2486 7.50282 11.2494C7.30505 11.2501 7.11499 11.1727 6.974 11.034L6.9 10.95L5.4 8.95C5.28589 8.7986 5.23336 8.6096 5.25296 8.42104C5.27257 8.23247 5.36286 8.05832 5.50567 7.93363C5.64848 7.80894 5.83321 7.74296 6.0227 7.74897C6.21219 7.75497 6.39237 7.83252 6.527 7.966L6.6 8.05L7.581 9.358L11.47 5.47L7.58 9.358H7.581Z" fill="black"/>
</svg>
