<svg width="23" height="23" viewBox="0 0 23 23" fill="none" xmlns="http://www.w3.org/2000/svg">
<path d="M4.13291 2.78933C8.55191 -0.832048 15.0825 -0.580048 19.2079 3.54533C23.601 7.93845 23.601 15.0619 19.2079 19.4551C14.8148 23.8482 7.69129 23.8482 3.29816 19.4551C1.95 18.1087 0.966122 16.4419 0.438929 14.611C-0.0882634 12.7801 -0.141477 10.8452 0.284287 8.98808L0.370912 8.63595L2.54666 9.2097C2.00727 11.2597 2.20882 13.4344 3.11578 15.3504C4.02273 17.2664 5.57689 18.8008 7.50435 19.6831C9.43181 20.5654 11.6089 20.7391 13.6518 20.1735C15.6948 19.6079 17.4725 18.3393 18.6718 16.5913C19.871 14.8433 20.4148 12.7281 20.2072 10.6185C19.9996 8.50886 19.0541 6.54021 17.5371 5.05947C16.0202 3.57873 14.0293 2.68095 11.9153 2.52435C9.80128 2.36775 7.69982 2.96238 5.98129 4.20345L5.73266 4.3902L6.87679 5.53433L1.70629 6.72683L2.89879 1.55633L4.13179 2.78933H4.13291ZM12.378 4.7502V7.0002H15.1905V9.2502H9.00304C8.86247 9.24994 8.72691 9.30232 8.62303 9.39702C8.51916 9.49173 8.4545 9.62189 8.4418 9.76188C8.4291 9.90187 8.46928 10.0415 8.55441 10.1534C8.63955 10.2652 8.76347 10.3412 8.90179 10.3662L9.00304 10.3752H13.503C14.249 10.3752 14.9643 10.6715 15.4918 11.199C16.0192 11.7264 16.3155 12.4418 16.3155 13.1877C16.3155 13.9336 16.0192 14.649 15.4918 15.1764C14.9643 15.7039 14.249 16.0002 13.503 16.0002H12.378V18.2502H10.128V16.0002H7.31554V13.7502H13.503C13.6436 13.7505 13.7792 13.6981 13.883 13.6034C13.9869 13.5087 14.0516 13.3785 14.0643 13.2385C14.077 13.0985 14.0368 12.9589 13.9517 12.847C13.8665 12.7352 13.7426 12.6592 13.6043 12.6342L13.503 12.6252H9.00304C8.25712 12.6252 7.54175 12.3289 7.0143 11.8014C6.48685 11.274 6.19054 10.5586 6.19054 9.8127C6.19054 9.06678 6.48685 8.35141 7.0143 7.82396C7.54175 7.29652 8.25712 7.0002 9.00304 7.0002H10.128V4.7502H12.378Z" fill="#2BE189"/>
</svg>
