<svg width="19" height="17" viewBox="0 0 19 17" fill="none" xmlns="http://www.w3.org/2000/svg">
<path d="M9.20523 0.53099C9.29453 0.477481 9.39668 0.449219 9.50078 0.449219C9.60488 0.449219 9.70703 0.477481 9.79633 0.53099L17.5841 5.20344C17.9249 5.40789 18.2068 5.69713 18.4025 6.04298C18.5982 6.38882 18.701 6.77947 18.7008 7.17684V13.6743C18.7008 14.4368 18.3979 15.1681 17.8587 15.7073C17.3195 16.2464 16.5883 16.5493 15.8258 16.5493H3.17578C2.41328 16.5493 1.68202 16.2464 1.14285 15.7073C0.603682 15.1681 0.300782 14.4368 0.300782 13.6743V7.17684C0.300579 6.77947 0.403334 6.38882 0.59903 6.04298C0.794726 5.69713 1.07669 5.40789 1.41743 5.20344L1.66238 5.61169L1.41743 5.20344L9.20523 0.53099ZM9.50078 1.69479L2.00968 6.19014L1.99358 6.19934L9.50078 10.7039L17.008 6.19934L16.993 6.19014L9.50078 1.69479ZM17.5508 7.21479L9.79633 11.8677C9.70703 11.9212 9.60488 11.9495 9.50078 11.9495C9.39668 11.9495 9.29453 11.9212 9.20523 11.8677L1.45078 7.21479V13.6743C1.45078 14.1318 1.63252 14.5706 1.95602 14.8941C2.27952 15.2176 2.71828 15.3993 3.17578 15.3993H15.8258C16.2833 15.3993 16.722 15.2176 17.0455 14.8941C17.369 14.5706 17.5508 14.1318 17.5508 13.6743V7.21479Z" fill="black"/>
</svg>
