<svg width="21" height="16" viewBox="0 0 21 16" fill="none" xmlns="http://www.w3.org/2000/svg">
<path d="M18.9239 14.7549L19.4629 14.3001H3.42566C2.6171 14.3001 1.94234 13.7309 1.94234 13.0488V1.34023L1.5371 1.79497H17.4386C18.2472 1.79497 18.9219 2.3642 18.9219 3.0463V4.07027C18.9219 4.29763 19.1914 4.525 19.461 4.525C19.7305 4.525 20 4.29763 20 4.07027V3.0463C20 1.90947 18.9219 1 17.5743 1H1.53903H1V1.45473V13.1649C1 14.3018 2.07807 15.2112 3.42566 15.2112H19.3272H19.8662V14.7565V7.02439C19.8662 6.79703 19.5967 6.56966 19.3272 6.56966C19.0577 6.56966 18.7881 6.79703 18.7881 7.02439V14.7549H18.9239Z" fill="black" stroke="black"/>
<path d="M10.84 8.61598C10.9757 8.73048 11.2453 8.73048 11.379 8.61598L19.6003 4.52338C19.8698 4.40888 20.0055 4.06865 19.8698 3.95415C19.7341 3.72678 19.4646 3.72678 19.195 3.83965L10.84 7.93388H11.379L4.23587 3.84128C3.96635 3.72678 3.69683 3.72678 3.42731 3.95578C3.29159 4.18315 3.42731 4.41052 3.56304 4.52502L10.84 8.61598Z" fill="black" stroke="black"/>
</svg>
