<svg width="17" height="17" viewBox="0 0 17 17" fill="none" xmlns="http://www.w3.org/2000/svg">
<path d="M4.71038 11.0576C4.8754 10.8982 5.09643 10.81 5.32585 10.812C5.55527 10.814 5.77473 10.9061 5.93697 11.0683C6.0992 11.2305 6.19122 11.45 6.19322 11.6794C6.19521 11.9088 6.10701 12.1298 5.94763 12.2949L3.61313 14.6285H5C5.21445 14.6286 5.42141 14.7074 5.58159 14.85C5.74177 14.9925 5.844 15.189 5.86888 15.402L5.875 15.5035C5.875 15.7356 5.78281 15.9581 5.61872 16.1222C5.45462 16.2863 5.23206 16.3785 5 16.3785H1.5C1.26794 16.3785 1.04538 16.2863 0.881282 16.1222C0.717187 15.9581 0.625 15.7356 0.625 15.5035V12.0035C0.625 11.7714 0.717187 11.5489 0.881282 11.3848C1.04538 11.2207 1.26794 11.1285 1.5 11.1285C1.73206 11.1285 1.95462 11.2207 2.11872 11.3848C2.28281 11.5489 2.375 11.7714 2.375 12.0035V13.3921L4.71038 11.0576ZM12.0044 16.3785C11.7723 16.3785 11.5498 16.2863 11.3857 16.1222C11.2216 15.9581 11.1294 15.7356 11.1294 15.5035C11.1294 15.2714 11.2216 15.0489 11.3857 14.8848C11.5498 14.7207 11.7723 14.6285 12.0044 14.6285H13.3895L11.0576 12.2949C10.907 12.1442 10.8165 11.9437 10.8031 11.7311C10.7897 11.5184 10.8544 11.3082 10.985 11.1399L11.0576 11.0576C11.2217 10.8936 11.4442 10.8014 11.6763 10.8014C11.9083 10.8014 12.1308 10.8936 12.2949 11.0576L14.6294 13.3939V12.0035C14.6294 11.7892 14.7081 11.5823 14.8505 11.4222C14.9929 11.262 15.1892 11.1597 15.402 11.1346L15.5044 11.1285C15.7364 11.1285 15.959 11.2207 16.1231 11.3848C16.2872 11.5489 16.3794 11.7714 16.3794 12.0035V15.5035C16.3794 15.7356 16.2872 15.9581 16.1231 16.1222C15.959 16.2863 15.7364 16.3785 15.5044 16.3785H12.0044ZM5 0.625C5.23206 0.625 5.45462 0.717187 5.61872 0.881282C5.78281 1.04538 5.875 1.26794 5.875 1.5C5.875 1.73206 5.78281 1.95462 5.61872 2.11872C5.45462 2.28281 5.23206 2.375 5 2.375H3.61488L5.94675 4.7095C6.0974 4.86017 6.18791 5.06063 6.20128 5.27328C6.21465 5.48593 6.14997 5.69615 6.01938 5.8645L5.94675 5.94675C5.78266 6.11079 5.56014 6.20294 5.32813 6.20294C5.09611 6.20294 4.87359 6.11079 4.7095 5.94675L2.375 3.6105V5C2.37497 5.21432 2.29629 5.42117 2.15387 5.58133C2.01146 5.74148 1.81522 5.8438 1.60238 5.86888L1.5 5.875C1.26794 5.875 1.04538 5.78281 0.881282 5.61872C0.717187 5.45462 0.625 5.23207 0.625 5V1.5C0.625 1.26794 0.717187 1.04538 0.881282 0.881282C1.04538 0.717187 1.26794 0.625 1.5 0.625H5ZM15.5044 0.625C15.7364 0.625 15.959 0.717187 16.1231 0.881282C16.2872 1.04538 16.3794 1.26794 16.3794 1.5V5C16.3794 5.23207 16.2872 5.45462 16.1231 5.61872C15.959 5.78281 15.7364 5.875 15.5044 5.875C15.2723 5.875 15.0498 5.78281 14.8857 5.61872C14.7216 5.45462 14.6294 5.23207 14.6294 5V3.6105L12.2949 5.94675C12.1442 6.0974 11.9437 6.18791 11.7311 6.20128C11.5184 6.21465 11.3082 6.14997 11.1399 6.01938L11.0576 5.94675C10.8936 5.78266 10.8014 5.56014 10.8014 5.32813C10.8014 5.09611 10.8936 4.87359 11.0576 4.7095L13.3904 2.375H12.0044C11.7901 2.37497 11.5832 2.29629 11.423 2.15387C11.2629 2.01146 11.1606 1.81522 11.1355 1.60238L11.1294 1.5C11.1294 1.26794 11.2216 1.04538 11.3857 0.881282C11.5498 0.717187 11.7723 0.625 12.0044 0.625H15.5044Z" fill="black"/>
</svg>
