<svg width="24" height="24" viewBox="0 0 24 24" fill="none" xmlns="http://www.w3.org/2000/svg">
<path d="M13.7827 1.23416H13.5787V0.557283C13.5787 0.249551 13.3293 0 13.0215 0C12.7137 0 12.4642 0.249551 12.4642 0.557283V1.23416H10.2351V0.557283C10.2351 0.249551 9.98556 0 9.67777 0C9.36998 0 9.12049 0.249551 9.12049 0.557283V1.23416H6.89136V0.557283C6.89136 0.249551 6.64186 0 6.33407 0C6.02629 0 5.77679 0.249551 5.77679 0.557283V1.23416H3.54766V0.557283C3.54766 0.249551 3.29817 0 2.99038 0C2.68259 0 2.4331 0.249551 2.4331 0.557283V1.23416H2.22913C0.999932 1.23416 0 2.23415 0 3.46329V20.6995C0 21.9287 0.999932 22.9287 2.22913 22.9287H13.7827C15.0119 22.9287 16.0118 21.9287 16.0118 20.6995V3.46329C16.0118 2.2342 15.0119 1.23416 13.7827 1.23416ZM14.8973 20.6996C14.8973 21.3142 14.3973 21.8142 13.7827 21.8142H2.22907C1.61456 21.8142 1.11451 21.3142 1.11451 20.6996V3.46329C1.11451 2.84872 1.61456 2.34872 2.22907 2.34872H2.43304V3.78033C2.43304 4.08806 2.68254 4.33761 2.99032 4.33761C3.29811 4.33761 3.54761 4.08806 3.54761 3.78033V2.34872H5.77674V3.78033C5.77674 4.08806 6.02623 4.33761 6.33402 4.33761C6.64181 4.33761 6.8913 4.08806 6.8913 3.78033V2.34872H9.12043V3.78033C9.12043 4.08806 9.36993 4.33761 9.67772 4.33761C9.9855 4.33761 10.235 4.08806 10.235 3.78033V2.34872H12.4641V3.78033C12.4641 4.08806 12.7136 4.33761 13.0214 4.33761C13.3292 4.33761 13.5787 4.08806 13.5787 3.78033V2.34872H13.7827C14.3973 2.34872 14.8972 2.84872 14.8972 3.46329V20.6996H14.8973Z" fill="#173FD4"/>
<path d="M12.9932 8.71875H3.01822C2.71043 8.71875 2.46094 8.9683 2.46094 9.27603C2.46094 9.58376 2.71043 9.83332 3.01822 9.83332H12.9931C13.3009 9.83332 13.5504 9.58376 13.5504 9.27603C13.5505 8.96825 13.301 8.71875 12.9932 8.71875Z" fill="#173FD4"/>
<path d="M12.9932 12.0625H3.01822C2.71043 12.0625 2.46094 12.3121 2.46094 12.6198C2.46094 12.9275 2.71043 13.1771 3.01822 13.1771H12.9931C13.3009 13.1771 13.5504 12.9275 13.5504 12.6198C13.5505 12.312 13.301 12.0625 12.9932 12.0625Z" fill="#173FD4"/>
<path d="M12.9932 15.4062H3.01822C2.71043 15.4062 2.46094 15.6557 2.46094 15.9635C2.46094 16.2713 2.71043 16.5208 3.01822 16.5208H12.9931C13.3009 16.5208 13.5504 16.2713 13.5504 15.9635C13.5505 15.6557 13.301 15.4062 12.9932 15.4062Z" fill="#173FD4"/>
<path fill-rule="evenodd" clip-rule="evenodd" d="M23.9997 16.9969C23.9997 18.7557 23.301 20.4425 22.0573 21.6862C20.8136 22.9299 19.1268 23.6286 17.368 23.6286C15.6092 23.6286 13.9224 22.9299 12.6787 21.6862C11.435 20.4425 10.7363 18.7557 10.7363 16.9969C10.7363 15.2381 11.435 13.5513 12.6787 12.3076C13.9224 11.0639 15.6092 10.3652 17.368 10.3652C19.1268 10.3652 20.8136 11.0639 22.0573 12.3076C23.301 13.5513 23.9997 15.2381 23.9997 16.9969ZM17.368 13.2666C17.368 13.1567 17.3243 13.0512 17.2466 12.9735C17.1689 12.8958 17.0634 12.8521 16.9535 12.8521C16.8436 12.8521 16.7382 12.8958 16.6604 12.9735C16.5827 13.0512 16.539 13.1567 16.539 13.2666V17.8259C16.5391 17.8989 16.5584 17.9707 16.5951 18.0338C16.6318 18.097 16.6845 18.1494 16.7479 18.1856L19.6493 19.8435C19.7445 19.895 19.8561 19.9072 19.9601 19.8775C20.0642 19.8478 20.1525 19.7785 20.2062 19.6845C20.2599 19.5906 20.2747 19.4793 20.2475 19.3746C20.2202 19.2698 20.1531 19.1799 20.0604 19.124L17.368 17.5855V13.2666Z" fill="#173FD4"/>
</svg>
