<svg width="29" height="14" viewBox="0 0 29 14" fill="none" xmlns="http://www.w3.org/2000/svg">
<rect width="29" height="14" rx="3" fill={color}/>
<path d="M8.35303 11V3.24951H7.15527V6.52588H3.17529V3.24951H1.97217V11H3.17529V7.56787H7.15527V11H8.35303ZM18.1392 11V3.24951H16.7319L14.2612 9.31348H14.1699L11.7046 3.24951H10.2974V11H11.4146V5.32275H11.4897L13.7617 10.8604H14.6748L16.9468 5.32275H17.022V11H18.1392ZM23.3867 3.06152C21.1631 3.06152 19.7666 4.62451 19.7666 7.12207C19.7666 9.61426 21.1309 11.188 23.3867 11.188C25.6265 11.188 27.0015 9.60889 27.0015 7.12207C27.0015 4.62988 25.6157 3.06152 23.3867 3.06152ZM23.3867 4.125C24.853 4.125 25.7715 5.28516 25.7715 7.12207C25.7715 8.94287 24.8584 10.1245 23.3867 10.1245C21.8936 10.1245 20.9966 8.94287 20.9966 7.12207C20.9966 5.28516 21.9204 4.125 23.3867 4.125Z" fill="white"/>
</svg>
