<svg width="14" height="12" viewBox="0 0 14 12" fill="none" xmlns="http://www.w3.org/2000/svg">
<path d="M12.8327 6.83464H2.94935L5.97435 10.468C6.04439 10.5522 6.09714 10.6495 6.1296 10.7541C6.16206 10.8588 6.17359 10.9688 6.16353 11.0779C6.14322 11.2983 6.0362 11.5015 5.86602 11.643C5.69584 11.7844 5.47644 11.8525 5.25608 11.8322C5.03572 11.8118 4.83246 11.7048 4.69102 11.5346L0.52435 6.53464C0.496317 6.49487 0.471249 6.45309 0.44935 6.40964C0.44935 6.36797 0.407683 6.34297 0.391017 6.3013C0.353245 6.20576 0.333468 6.10405 0.332684 6.0013C0.333468 5.89856 0.353245 5.79685 0.391017 5.7013C0.391017 5.65964 0.432683 5.63464 0.44935 5.59297C0.471249 5.54952 0.496317 5.50774 0.52435 5.46797L4.69102 0.46797C4.76937 0.373901 4.86749 0.298251 4.97839 0.246401C5.08929 0.19455 5.21026 0.167772 5.33268 0.16797C5.52739 0.16759 5.71609 0.235403 5.86602 0.359637C5.9504 0.429595 6.02015 0.515512 6.07128 0.612468C6.1224 0.709424 6.1539 0.815514 6.16396 0.924661C6.17403 1.03381 6.16246 1.14387 6.12992 1.24854C6.09738 1.35321 6.04452 1.45043 5.97435 1.53464L2.94935 5.16797H12.8327C13.0537 5.16797 13.2657 5.25577 13.4219 5.41205C13.5782 5.56833 13.666 5.78029 13.666 6.0013C13.666 6.22232 13.5782 6.43428 13.4219 6.59056C13.2657 6.74684 13.0537 6.83464 12.8327 6.83464Z" fill="black"/>
</svg>
