<svg width="13" height="12" viewBox="0 0 13 12" fill="none" xmlns="http://www.w3.org/2000/svg">
<path fill-rule="evenodd" clip-rule="evenodd" d="M2.42591 5.00017C2.42591 5.00017 2.69791 4.9635 3.09258 4.85817C4.13324 4.5805 6.02591 3.82683 6.02591 2.01417C6.02591 1.74968 5.97382 1.48779 5.8726 1.24344C5.77139 0.999093 5.62304 0.777071 5.43602 0.590054C5.249 0.403037 5.02698 0.254686 4.78263 0.153473C4.53828 0.0522604 4.27639 0.00016668 4.01191 0.00016668H2.03991C1.77327 -0.00326386 1.5086 0.0462913 1.26126 0.145957C1.01393 0.245622 0.788845 0.393414 0.599077 0.580756C0.409309 0.768098 0.258634 0.99126 0.155795 1.23729C0.0529559 1.48333 0 1.74734 0 2.014C0 2.28066 0.0529559 2.54467 0.155795 2.7907C0.258634 3.03674 0.409309 3.2599 0.599077 3.44724C0.788845 3.63459 1.01393 3.78238 1.26126 3.88204C1.5086 3.98171 1.77327 4.03126 2.03991 4.02783H2.42591V5.00017ZM3.09258 3.36117H2.03991C1.86121 3.36398 1.68374 3.33121 1.51784 3.26477C1.35193 3.19833 1.20089 3.09955 1.07353 2.97417C0.946169 2.8488 0.845022 2.69934 0.775981 2.53449C0.70694 2.36965 0.671385 2.19272 0.671385 2.014C0.671385 1.83528 0.70694 1.65835 0.775981 1.49351C0.845022 1.32866 0.946169 1.1792 1.07353 1.05383C1.20089 0.928454 1.35193 0.82967 1.51784 0.76323C1.68374 0.696791 1.86121 0.664022 2.03991 0.666833H4.01191C4.18884 0.666833 4.36405 0.701683 4.52751 0.769393C4.69098 0.837103 4.83951 0.936347 4.96462 1.06146C5.08973 1.18657 5.18897 1.3351 5.25668 1.49856C5.32439 1.66203 5.35924 1.83723 5.35924 2.01417C5.35924 2.87517 4.75658 3.4485 3.93624 3.84417C3.64558 3.98417 3.35091 4.08917 3.09258 4.16583V3.36117Z" fill="black"/>
<path fill-rule="evenodd" clip-rule="evenodd" d="M2.86068 8.66667C3.59734 8.66667 4.19401 8.07 4.19401 7.33333C4.19401 6.59667 3.59734 6 2.86068 6C2.12401 6 1.52734 6.59667 1.52734 7.33333C1.52734 8.07 2.12401 8.66667 2.86068 8.66667ZM3.52734 7.33333C3.52734 7.51015 3.45711 7.67971 3.33208 7.80474C3.20706 7.92976 3.03749 8 2.86068 8C2.68387 8 2.5143 7.92976 2.38927 7.80474C2.26425 7.67971 2.19401 7.51015 2.19401 7.33333C2.19401 7.15652 2.26425 6.98695 2.38927 6.86193C2.5143 6.73691 2.68387 6.66667 2.86068 6.66667C3.03749 6.66667 3.20706 6.73691 3.33208 6.86193C3.45711 6.98695 3.52734 7.15652 3.52734 7.33333Z" fill="black"/>
<path fill-rule="evenodd" clip-rule="evenodd" d="M0.0273438 10.7544C0.0273438 9.80836 1.91501 9.33203 2.86068 9.33203C3.80634 9.33203 5.69401 9.8087 5.69401 10.7544V11.9987H0.0273438V10.7544ZM0.69401 11.332V10.7544C0.69401 10.751 0.69401 10.7444 0.702677 10.7277C0.713344 10.707 0.737677 10.6707 0.790344 10.622C0.90001 10.5204 1.08368 10.4094 1.33801 10.307C1.84801 10.102 2.47134 9.9987 2.86068 9.9987C3.24968 9.9987 3.87368 10.102 4.38334 10.307C4.63734 10.4094 4.82134 10.5204 4.93101 10.622C4.98368 10.6707 5.00801 10.707 5.01868 10.7274C5.02734 10.744 5.02734 10.7514 5.02734 10.754V11.332H0.69401Z" fill="black"/>
<path fill-rule="evenodd" clip-rule="evenodd" d="M10.526 7.33333C10.526 8.07 9.92938 8.66667 9.19271 8.66667C8.45604 8.66667 7.85938 8.07 7.85938 7.33333C7.85938 6.59667 8.45604 6 9.19271 6C9.92938 6 10.526 6.59667 10.526 7.33333ZM9.19271 8C9.36952 8 9.53909 7.92976 9.66411 7.80474C9.78914 7.67971 9.85938 7.51015 9.85938 7.33333C9.85938 7.15652 9.78914 6.98695 9.66411 6.86193C9.53909 6.73691 9.36952 6.66667 9.19271 6.66667C9.0159 6.66667 8.84633 6.73691 8.7213 6.86193C8.59628 6.98695 8.52604 7.15652 8.52604 7.33333C8.52604 7.51015 8.59628 7.67971 8.7213 7.80474C8.84633 7.92976 9.0159 8 9.19271 8Z" fill="black"/>
<path fill-rule="evenodd" clip-rule="evenodd" d="M6.35938 10.7544C6.35938 9.80836 8.24704 9.33203 9.19271 9.33203C10.1384 9.33203 12.026 9.8087 12.026 10.7544V11.9987H6.35938V10.7544ZM7.02604 11.332V10.7544C7.02604 10.751 7.02604 10.7444 7.03471 10.7277C7.04537 10.707 7.06971 10.6707 7.12204 10.622C7.23204 10.5204 7.41604 10.4094 7.67004 10.307C8.18004 10.102 8.80338 9.9987 9.19271 9.9987C9.58171 9.9987 10.2057 10.102 10.7154 10.307C10.9694 10.4094 11.1534 10.5204 11.2634 10.622C11.3157 10.6707 11.34 10.707 11.3507 10.7274C11.3594 10.744 11.3594 10.7514 11.3594 10.754V11.332H7.02604Z" fill="black"/>
<path fill-rule="evenodd" clip-rule="evenodd" d="M9.22865 5.17144C9.61865 5.2941 9.89531 5.3361 9.89531 5.3361V4.36377H10.0146C10.2813 4.3672 10.546 4.31765 10.7933 4.21798C11.0406 4.11831 11.2657 3.97052 11.4555 3.78318C11.6452 3.59584 11.7959 3.37268 11.8988 3.12664C12.0016 2.88061 12.0546 2.6166 12.0546 2.34994C12.0546 2.08327 12.0016 1.81927 11.8988 1.57323C11.7959 1.3272 11.6452 1.10404 11.4555 0.916693C11.2657 0.729351 11.0406 0.58156 10.7933 0.481894C10.546 0.382229 10.2813 0.332674 10.0146 0.336104H8.70931C8.17517 0.336104 7.6629 0.548293 7.2852 0.925991C6.9075 1.30369 6.69531 1.81596 6.69531 2.3501C6.69531 4.11544 8.29098 4.87677 9.22865 5.17144ZM10.0146 3.6971H9.22865V4.4681C9.01699 4.39251 8.8113 4.30114 8.61331 4.19477C7.91865 3.81777 7.36198 3.2521 7.36198 2.34977C7.36207 1.99249 7.50406 1.64988 7.75672 1.39728C8.00939 1.14468 8.35204 1.00277 8.70931 1.00277H10.0146C10.1933 0.99996 10.3708 1.03273 10.5367 1.09917C10.7026 1.16561 10.8537 1.26439 10.981 1.38977C11.1084 1.51514 11.2095 1.6646 11.2786 1.82944C11.3476 1.99429 11.3832 2.17122 11.3832 2.34994C11.3832 2.52866 11.3476 2.70559 11.2786 2.87043C11.2095 3.03527 11.1084 3.18473 10.981 3.31011C10.8537 3.43548 10.7026 3.53427 10.5367 3.60071C10.3708 3.66715 10.1933 3.69991 10.0146 3.6971Z" fill="black"/>
</svg>
