<svg width="5" height="14" viewBox="0 0 5 14" fill="none" xmlns="http://www.w3.org/2000/svg">
<path d="M2.6098 10.5C1.71306 10.5 0.979365 11.2875 0.979365 12.25C0.979365 13.2125 1.71306 14 2.6098 14C3.50654 14 4.24023 13.2125 4.24023 12.25C4.24023 11.2875 3.50654 10.5 2.6098 10.5ZM2.6098 8.75C3.50654 8.75 4.24023 7.9625 4.24023 7C4.24023 6.0375 3.50654 5.25 2.6098 5.25C1.71306 5.25 0.979365 6.0375 0.979365 7C0.979365 7.9625 1.71306 8.75 2.6098 8.75ZM2.6098 3.5C3.50654 3.5 4.24023 2.7125 4.24023 1.75C4.24023 0.787499 3.50654 0 2.6098 0C1.71306 0 0.979365 0.787499 0.979365 1.75C0.979365 2.7125 1.71306 3.5 2.6098 3.5Z" fill="black"/>
</svg>
