<svg width="18" height="16" viewBox="0 0 18 16" fill="none" xmlns="http://www.w3.org/2000/svg">
<path d="M4.72656 11.5948V13.2993C4.72656 13.7514 4.94207 14.185 5.32567 14.5046C5.70927 14.8243 6.22955 15.0039 6.77205 15.0039H14.954C15.4965 15.0039 16.0168 14.8243 16.4004 14.5046C16.784 14.185 16.9995 13.7514 16.9995 13.2993V3.07193C16.9995 2.61985 16.784 2.18629 16.4004 1.86662C16.0168 1.54695 15.4965 1.36736 14.954 1.36736H7.18114C6.05152 1.36736 4.72656 2.13058 4.72656 3.07193V4.7765" stroke="black" stroke-linecap="round" stroke-linejoin="round"/>
<path d="M9.63672 4.77548L13.7277 8.18461L9.63672 11.5938" stroke="black" stroke-linecap="round" stroke-linejoin="round"/>
<path d="M1 8.1875H11.0001" stroke="black" stroke-linecap="round" stroke-linejoin="round"/>
</svg>
