<svg width="22" height="17" viewBox="0 0 22 17" fill="none" xmlns="http://www.w3.org/2000/svg">
<path d="M6 0.6C3.01766 0.6 0.6 3.01766 0.6 6V11C0.6 13.9823 3.01766 16.4 6 16.4H16C18.9823 16.4 21.4 13.9823 21.4 11V6C21.4 3.01766 18.9823 0.6 16 0.6H6Z" fill="white" stroke="black" stroke-width="0.8"/>
<path d="M14.4389 15.2011C14.3075 15.2007 14.1765 15.1863 14.0481 15.1581C11.6049 14.6527 9.35394 13.4676 7.55445 11.7393C5.79337 10.0072 4.57196 7.80192 4.03801 5.39019C3.97505 5.08962 3.9905 4.7779 4.08288 4.48503C4.17526 4.19216 4.34146 3.92799 4.56548 3.71793L6.12834 2.21368C6.20816 2.13818 6.30301 2.08038 6.40669 2.04402C6.51037 2.00767 6.62055 1.99358 6.73004 2.00269C6.84357 2.01453 6.95312 2.0511 7.051 2.10983C7.14888 2.16856 7.2327 2.24801 7.29658 2.34261L9.25016 5.23C9.32342 5.34204 9.35878 5.47463 9.35104 5.60827C9.34331 5.7419 9.29288 5.86953 9.20718 5.97236L8.22648 7.14451C8.61706 8.00895 9.1702 8.79023 9.85577 9.44582C10.5369 10.1252 11.342 10.6677 12.2274 11.0438L13.4425 10.0788C13.5446 9.99813 13.6688 9.95044 13.7986 9.94206C13.9284 9.93369 14.0577 9.96502 14.1693 10.0319L17.1192 11.9386C17.2204 11.999 17.3066 12.0816 17.3714 12.1801C17.4362 12.2786 17.4779 12.3905 17.4933 12.5074C17.5087 12.6243 17.4975 12.7431 17.4604 12.8551C17.4234 12.967 17.3615 13.0691 17.2794 13.1537L15.7556 14.6619C15.5825 14.8341 15.377 14.9704 15.1511 15.063C14.9251 15.1555 14.683 15.2024 14.4389 15.2011ZM6.66753 2.77631L5.10466 4.28056C4.97864 4.39799 4.88535 4.5462 4.83397 4.71062C4.78259 4.87503 4.77489 5.04999 4.81163 5.21828C5.30812 7.48136 6.4494 9.55222 8.09755 11.1806C9.79098 12.8066 11.9092 13.9212 14.2083 14.3962C14.3824 14.4326 14.5627 14.4252 14.7332 14.3747C14.9037 14.3243 15.0589 14.2323 15.1851 14.1071L16.7089 12.5989L13.8606 10.7586L12.5556 11.7979C12.5057 11.8375 12.4468 11.8642 12.3841 11.8758C12.3215 11.8874 12.2569 11.8834 12.1962 11.8644C11.1126 11.4651 10.1306 10.8314 9.32049 10.0085C8.48254 9.22593 7.8321 8.2643 7.4177 7.1953C7.40017 7.13058 7.39959 7.06245 7.41601 6.99744C7.43243 6.93243 7.46531 6.87275 7.51147 6.82412L8.5664 5.56211L6.66753 2.77631Z" fill="black"/>
</svg>
