<svg width="29" height="14" viewBox="0 0 29 14" fill="none" xmlns="http://www.w3.org/2000/svg">
<rect width="29" height="14" rx="3" fill="#0085FE"/>
<path d="M3.95605 3.24951V11H5.3418V8.43799H7.02295C8.59131 8.43799 9.68701 7.39062 9.68701 5.85986C9.68701 4.30225 8.62891 3.24951 7.08203 3.24951H3.95605ZM5.3418 4.38281H6.7168C7.71582 4.38281 8.27979 4.89844 8.27979 5.85986C8.27979 6.79443 7.69971 7.3208 6.71143 7.3208H5.3418V4.38281ZM11.2178 3.24951V11H12.6035V8.43799H14.2847C15.853 8.43799 16.9487 7.39062 16.9487 5.85986C16.9487 4.30225 15.8906 3.24951 14.3438 3.24951H11.2178ZM12.6035 4.38281H13.9785C14.9775 4.38281 15.5415 4.89844 15.5415 5.85986C15.5415 6.79443 14.9614 7.3208 13.9731 7.3208H12.6035V4.38281ZM21.8203 3.05615C19.5698 3.05615 18.1519 4.61914 18.1519 7.12207C18.1519 9.61963 19.5483 11.1934 21.8203 11.1934C24.0815 11.1934 25.4834 9.61963 25.4834 7.12207C25.4834 4.61914 24.0762 3.05615 21.8203 3.05615ZM21.8203 4.25391C23.1953 4.25391 24.0708 5.36572 24.0708 7.12207C24.0708 8.86768 23.2007 9.99561 21.8203 9.99561C20.4238 9.99561 19.5698 8.86768 19.5698 7.12207C19.5698 5.36572 20.4453 4.25391 21.8203 4.25391Z" fill="white"/>
</svg>
