<svg width="19" height="19" viewBox="0 0 19 19" fill="none" xmlns="http://www.w3.org/2000/svg">
<path d="M2.75 11.375C2.95711 11.375 3.125 11.2071 3.125 11C3.125 10.7929 2.95711 10.625 2.75 10.625C2.54289 10.625 2.375 10.7929 2.375 11C2.375 11.2071 2.54289 11.375 2.75 11.375Z" fill="black"/>
<path d="M2 10.625C2.20711 10.625 2.375 10.4571 2.375 10.25C2.375 10.0429 2.20711 9.875 2 9.875C1.79289 9.875 1.625 10.0429 1.625 10.25C1.625 10.4571 1.79289 10.625 2 10.625Z" fill="black"/>
<path d="M3.5 10.625C3.70711 10.625 3.875 10.4571 3.875 10.25C3.875 10.0429 3.70711 9.875 3.5 9.875C3.29289 9.875 3.125 10.0429 3.125 10.25C3.125 10.4571 3.29289 10.625 3.5 10.625Z" fill="black"/>
<path d="M8.75 13.625C8.95711 13.625 9.125 13.4571 9.125 13.25C9.125 13.0429 8.95711 12.875 8.75 12.875C8.54289 12.875 8.375 13.0429 8.375 13.25C8.375 13.4571 8.54289 13.625 8.75 13.625Z" fill="black"/>
<path d="M11 10.625C11.2071 10.625 11.375 10.4571 11.375 10.25C11.375 10.0429 11.2071 9.875 11 9.875C10.7929 9.875 10.625 10.0429 10.625 10.25C10.625 10.4571 10.7929 10.625 11 10.625Z" fill="black"/>
<path d="M11 6.875C11.2071 6.875 11.375 6.70711 11.375 6.5C11.375 6.29289 11.2071 6.125 11 6.125C10.7929 6.125 10.625 6.29289 10.625 6.5C10.625 6.70711 10.7929 6.875 11 6.875Z" fill="black"/>
<path d="M8 2.375C8.20711 2.375 8.375 2.20711 8.375 2C8.375 1.79289 8.20711 1.625 8 1.625C7.79289 1.625 7.625 1.79289 7.625 2C7.625 2.20711 7.79289 2.375 8 2.375Z" fill="black"/>
<path d="M13.25 8.375C13.4571 8.375 13.625 8.20711 13.625 8C13.625 7.79289 13.4571 7.625 13.25 7.625C13.0429 7.625 12.875 7.79289 12.875 8C12.875 8.20711 13.0429 8.375 13.25 8.375Z" fill="black"/>
<path d="M15.5 8.375C15.7071 8.375 15.875 8.20711 15.875 8C15.875 7.79289 15.7071 7.625 15.5 7.625C15.2929 7.625 15.125 7.79289 15.125 8C15.125 8.20711 15.2929 8.375 15.5 8.375Z" fill="black"/>
<path d="M15.5 12.875C15.7071 12.875 15.875 12.7071 15.875 12.5C15.875 12.2929 15.7071 12.125 15.5 12.125C15.2929 12.125 15.125 12.2929 15.125 12.5C15.125 12.7071 15.2929 12.875 15.5 12.875Z" fill="black"/>
<path d="M16.25 14.375C16.4571 14.375 16.625 14.2071 16.625 14C16.625 13.7929 16.4571 13.625 16.25 13.625C16.0429 13.625 15.875 13.7929 15.875 14C15.875 14.2071 16.0429 14.375 16.25 14.375Z" fill="black"/>
<path d="M17 17.375C17.2071 17.375 17.375 17.2071 17.375 17C17.375 16.7929 17.2071 16.625 17 16.625C16.7929 16.625 16.625 16.7929 16.625 17C16.625 17.2071 16.7929 17.375 17 17.375Z" fill="black"/>
<path d="M8 17.375C8.20711 17.375 8.375 17.2071 8.375 17C8.375 16.7929 8.20711 16.625 8 16.625C7.79289 16.625 7.625 16.7929 7.625 17C7.625 17.2071 7.79289 17.375 8 17.375Z" fill="black"/>
<path d="M12.5 17.375C12.7071 17.375 12.875 17.2071 12.875 17C12.875 16.7929 12.7071 16.625 12.5 16.625C12.2929 16.625 12.125 16.7929 12.125 17C12.125 17.2071 12.2929 17.375 12.5 17.375Z" fill="black"/>
<path d="M13.25 16.625C13.4571 16.625 13.625 16.4571 13.625 16.25C13.625 16.0429 13.4571 15.875 13.25 15.875C13.0429 15.875 12.875 16.0429 12.875 16.25C12.875 16.4571 13.0429 16.625 13.25 16.625Z" fill="black"/>
<path d="M12.5 15.875C12.7071 15.875 12.875 15.7071 12.875 15.5C12.875 15.2929 12.7071 15.125 12.5 15.125C12.2929 15.125 12.125 15.2929 12.125 15.5C12.125 15.7071 12.2929 15.875 12.5 15.875Z" fill="black"/>
<path d="M2 8.375C2.20711 8.375 2.375 8.20711 2.375 8C2.375 7.79289 2.20711 7.625 2 7.625C1.79289 7.625 1.625 7.79289 1.625 8C1.625 8.20711 1.79289 8.375 2 8.375Z" fill="black"/>
<path d="M11 16.625C11.2071 16.625 11.375 16.4571 11.375 16.25C11.375 16.0429 11.2071 15.875 11 15.875C10.7929 15.875 10.625 16.0429 10.625 16.25C10.625 16.4571 10.7929 16.625 11 16.625Z" fill="black"/>
<path d="M0.5 0.5H18.5V18.5H0.5V0.5Z" stroke="black" stroke-linejoin="round"/>
<path d="M2 2H6.5V6.5H2V2Z" stroke="black" stroke-width="0.555556" stroke-linejoin="round"/>
<path d="M3.5 3.5H5V5H3.5V3.5Z" stroke="black" stroke-width="0.555556" stroke-linejoin="round"/>
<path d="M2 12.5H6.5V17H2V12.5Z" stroke="black" stroke-width="0.555556" stroke-linejoin="round"/>
<path d="M3.5 14H5V15.5H3.5V14Z" stroke="black" stroke-width="0.555556" stroke-linejoin="round"/>
<path d="M12.5 2H17V6.5H12.5V2Z" stroke="black" stroke-width="0.555556" stroke-linejoin="round"/>
<path d="M14 3.5H15.5V5H14V3.5Z" stroke="black" stroke-width="0.555556" stroke-linejoin="round"/>
<path d="M2.75 9.5V8.75H5.75" stroke="black" stroke-width="0.555556" stroke-linecap="round" stroke-linejoin="round"/>
<path d="M3.5 8.75V8" stroke="black" stroke-width="0.555556" stroke-linecap="round" stroke-linejoin="round"/>
<path d="M5 8.75V11" stroke="black" stroke-width="0.555556" stroke-linecap="round" stroke-linejoin="round"/>
<path d="M5 10.25H5.75" stroke="black" stroke-width="0.555556" stroke-linecap="round" stroke-linejoin="round"/>
<path d="M10.25 8V7.25" stroke="black" stroke-width="0.555556" stroke-linecap="round" stroke-linejoin="round"/>
<path d="M17 8.75H16.25" stroke="black" stroke-width="0.555556" stroke-linecap="round" stroke-linejoin="round"/>
<path d="M11.75 11.75H12.5V11" stroke="black" stroke-width="0.555556" stroke-linecap="round" stroke-linejoin="round"/>
<path d="M6.5 8H7.25" stroke="black" stroke-width="0.555556" stroke-linecap="round" stroke-linejoin="round"/>
<path d="M8.75 8H11" stroke="black" stroke-width="0.555556" stroke-linecap="round" stroke-linejoin="round"/>
<path d="M10.25 2V3.5H9.5V6.5" stroke="black" stroke-width="0.555556" stroke-linecap="round" stroke-linejoin="round"/>
<path d="M9.5 5.75H8V6.5" stroke="black" stroke-width="0.555556" stroke-linecap="round" stroke-linejoin="round"/>
<path d="M9.5 3.5H8" stroke="black" stroke-width="0.555556" stroke-linecap="round" stroke-linejoin="round"/>
<path d="M9.5 4.25H8.75V2.75" stroke="black" stroke-width="0.555556" stroke-linecap="round" stroke-linejoin="round"/>
<path d="M6.5 9.5H9.5" stroke="black" stroke-width="0.555556" stroke-linecap="round" stroke-linejoin="round"/>
<path d="M7.25 9.5V11H6.5" stroke="black" stroke-width="0.555556" stroke-linecap="round" stroke-linejoin="round"/>
<path d="M8.75 9.5V10.25" stroke="black" stroke-width="0.555556" stroke-linecap="round" stroke-linejoin="round"/>
<path d="M8 12.5V11.75H10.25V14H11.75V13.25H14.75V17" stroke="black" stroke-width="0.555556" stroke-linecap="round" stroke-linejoin="round"/>
<path d="M13.25 11H11.75V14H12.5M9.5 11V12.5H11.75L9.5 11Z" stroke="black" stroke-width="0.555556" stroke-linecap="round" stroke-linejoin="round"/>
<path d="M14 8.75V10.25H14.75V11.75H14V13.25" stroke="black" stroke-width="0.555556" stroke-linecap="round" stroke-linejoin="round"/>
<path d="M14.75 10.25V9.5H15.5" stroke="black" stroke-width="0.555556" stroke-linecap="round" stroke-linejoin="round"/>
<path d="M15.5 14.75H14V15.5" stroke="black" stroke-width="0.555556" stroke-linecap="round" stroke-linejoin="round"/>
<path d="M8 15.5H8.75V16.25H9.5V14.75" stroke="black" stroke-width="0.555556" stroke-linecap="round" stroke-linejoin="round"/>
<path d="M17 8V10.25H16.25" stroke="black" stroke-width="0.555556" stroke-linecap="round" stroke-linejoin="round"/>
<path d="M12.5 9.5V8.75" stroke="black" stroke-width="0.555556" stroke-linecap="round" stroke-linejoin="round"/>
<path d="M17 11.75V12.5" stroke="black" stroke-width="0.555556" stroke-linecap="round" stroke-linejoin="round"/>
<path d="M16.25 15.5H17" stroke="black" stroke-width="0.555556" stroke-linecap="round" stroke-linejoin="round"/>
<path d="M11 4.25V5" stroke="black" stroke-width="0.555556" stroke-linecap="round" stroke-linejoin="round"/>
</svg>
