<svg width="14" height="12" viewBox="0 0 14 12" fill="none" xmlns="http://www.w3.org/2000/svg">
<path d="M1.16732 6.83464H11.0507L8.02565 10.468C7.95561 10.5522 7.90286 10.6495 7.8704 10.7541C7.83794 10.8588 7.82641 10.9688 7.83647 11.0779C7.85678 11.2983 7.9638 11.5015 8.13398 11.643C8.30416 11.7844 8.52356 11.8525 8.74392 11.8322C8.96428 11.8118 9.16753 11.7048 9.30898 11.5346L13.4756 6.53464C13.5037 6.49487 13.5288 6.45309 13.5507 6.40964C13.5507 6.36797 13.5923 6.34297 13.609 6.3013C13.6468 6.20576 13.6665 6.10405 13.6673 6.0013C13.6665 5.89856 13.6468 5.79685 13.609 5.7013C13.609 5.65964 13.5673 5.63464 13.5507 5.59297C13.5288 5.54952 13.5037 5.50774 13.4756 5.46797L9.30898 0.46797C9.23063 0.373902 9.13251 0.298251 9.02161 0.246401C8.91071 0.19455 8.78974 0.167772 8.66732 0.16797C8.47261 0.16759 8.28391 0.235403 8.13398 0.359637C8.0496 0.429595 7.97985 0.515512 7.92872 0.612468C7.8776 0.709424 7.8461 0.815514 7.83604 0.924661C7.82597 1.03381 7.83754 1.14387 7.87008 1.24854C7.90262 1.35321 7.95548 1.45043 8.02565 1.53464L11.0507 5.16797H1.16732C0.946304 5.16797 0.734342 5.25577 0.578062 5.41205C0.421782 5.56833 0.333984 5.78029 0.333984 6.0013C0.333984 6.22232 0.421782 6.43428 0.578062 6.59056C0.734342 6.74684 0.946304 6.83464 1.16732 6.83464Z" fill="black"/>
</svg>
