<svg width="18" height="16" viewBox="0 0 18 16" fill="none" xmlns="http://www.w3.org/2000/svg">
<path d="M16.9848 15.0532L12.9793 11.2494C14.0538 10.0764 14.7043 8.54589 14.7043 6.87308C14.7043 3.19083 11.5503 0.199219 7.67638 0.199219C3.79877 0.199219 0.648438 3.1943 0.648438 6.87308C0.648438 10.5519 3.80242 13.5469 7.67638 13.5469C9.43793 13.5469 11.0496 12.9292 12.2849 11.9088L16.2904 15.7126C16.3855 15.8028 16.5134 15.8514 16.6376 15.8514C16.7619 15.8514 16.8898 15.8063 16.9848 15.7126C17.1749 15.5321 17.1749 15.2336 16.9848 15.0532ZM1.63155 6.87308C1.63155 3.70794 4.34331 1.13627 7.67272 1.13627C11.0058 1.13627 13.7139 3.71141 13.7139 6.87308C13.7139 10.0348 11.0058 12.6134 7.67272 12.6134C4.34331 12.6134 1.63155 10.0382 1.63155 6.87308Z" fill="black"/>
</svg>
