<svg width="16" height="18" viewBox="0 0 16 18" fill="none" xmlns="http://www.w3.org/2000/svg">
<path d="M15.367 6.79219L13.2436 0.152351C13.2298 0.107921 13.2021 0.0691141 13.1645 0.0416759C13.1269 0.0142377 13.0815 -0.000372927 13.035 7.23501e-06H11.2209C11.1248 7.23501e-06 11.0428 0.0609447 11.0123 0.152351L8.8725 6.79219C8.86547 6.81329 8.86078 6.83673 8.86078 6.86016C8.86078 6.97969 8.95922 7.07813 9.07875 7.07813H10.4006C10.4991 7.07813 10.5834 7.01251 10.6116 6.91876L11.0217 5.47501H13.1077L13.5131 6.91641C13.5389 7.01016 13.6256 7.07579 13.7241 7.07579H15.1584C15.1819 7.07579 15.203 7.07344 15.2241 7.06641C15.2803 7.04766 15.3248 7.01016 15.353 6.9586C15.3787 6.90704 15.3834 6.84844 15.367 6.79219ZM11.235 4.25391L12.0037 1.51407H12.1514L12.9037 4.25391H11.235ZM14.5983 15.8063H11.5608V15.7969L14.6686 11.3695C14.6944 11.332 14.7084 11.2899 14.7084 11.243V10.3899C14.7084 10.2703 14.61 10.1719 14.4905 10.1719H9.70922C9.58969 10.1719 9.49125 10.2703 9.49125 10.3899V11.3977C9.49125 11.5172 9.58969 11.6156 9.70922 11.6156H12.5827V11.625L9.46312 16.0524C9.43708 16.0894 9.42316 16.1336 9.42328 16.1789V17.032C9.42328 17.1516 9.52172 17.25 9.64125 17.25H14.5959C14.7155 17.25 14.8139 17.1516 14.8139 17.032V16.0242C14.8142 15.9957 14.8089 15.9674 14.7982 15.941C14.7875 15.9146 14.7716 15.8905 14.7516 15.8702C14.7315 15.85 14.7077 15.8339 14.6813 15.8229C14.655 15.8119 14.6268 15.8063 14.5983 15.8063ZM5.4389 13.0781H3.65766V0.656257C3.65766 0.553132 3.57328 0.468757 3.47016 0.468757H2.15766C2.05453 0.468757 1.97016 0.553132 1.97016 0.656257V13.0781H0.188906C0.031875 13.0781 -0.0571875 13.2609 0.0412499 13.3828L2.66625 16.7086C2.68379 16.731 2.7062 16.7491 2.73178 16.7616C2.75736 16.7741 2.78545 16.7805 2.81391 16.7805C2.84236 16.7805 2.87045 16.7741 2.89603 16.7616C2.92161 16.7491 2.94402 16.731 2.96156 16.7086L5.58656 13.3828C5.68265 13.2609 5.59594 13.0781 5.4389 13.0781Z" fill="#173FD4"/>
</svg>
