<svg width="16" height="18" viewBox="0 0 16 18" fill="none" xmlns="http://www.w3.org/2000/svg">
<path d="M15.6776 7.16719L13.5541 0.527351C13.5403 0.482921 13.5126 0.444114 13.475 0.416676C13.4375 0.389238 13.3921 0.374627 13.3455 0.375007H11.5315C11.4354 0.375007 11.3534 0.435945 11.3229 0.527351L9.18304 7.16719C9.17601 7.18829 9.17133 7.21173 9.17133 7.23516C9.17133 7.35469 9.26976 7.45313 9.38929 7.45313H10.7112C10.8096 7.45313 10.894 7.38751 10.9221 7.29376L11.3323 5.85001H13.4182L13.8237 7.29141C13.8495 7.38516 13.9362 7.45079 14.0346 7.45079H15.469C15.4924 7.45079 15.5135 7.44844 15.5346 7.44141C15.5909 7.42266 15.6354 7.38516 15.6635 7.3336C15.6893 7.28204 15.694 7.22344 15.6776 7.16719ZM11.5455 4.62891L12.3143 1.88907H12.462L13.2143 4.62891H11.5455ZM14.9088 16.1813H11.8713V16.1719L14.9791 11.7445C15.0049 11.707 15.019 11.6649 15.019 11.618V10.7649C15.019 10.6453 14.9205 10.5469 14.801 10.5469H10.0198C9.90023 10.5469 9.8018 10.6453 9.8018 10.7649V11.7727C9.8018 11.8922 9.90023 11.9906 10.0198 11.9906H12.8932V12L9.77367 16.4274C9.74763 16.4644 9.73371 16.5086 9.73383 16.5539V17.407C9.73383 17.5266 9.83226 17.625 9.95179 17.625H14.9065C15.026 17.625 15.1244 17.5266 15.1244 17.407V16.3992C15.1248 16.3707 15.1194 16.3424 15.1087 16.316C15.098 16.2896 15.0822 16.2655 15.0621 16.2452C15.0421 16.225 15.0182 16.2089 14.9919 16.1979C14.9656 16.1869 14.9373 16.1813 14.9088 16.1813ZM5.74945 13.4531H3.9682V1.03126C3.9682 0.928132 3.88383 0.843757 3.7807 0.843757H2.4682C2.36508 0.843757 2.2807 0.928132 2.2807 1.03126V13.4531H0.499453C0.342422 13.4531 0.253359 13.6359 0.351797 13.7578L2.9768 17.0836C2.99434 17.106 3.01674 17.1241 3.04233 17.1366C3.06791 17.1491 3.09599 17.1555 3.12445 17.1555C3.15291 17.1555 3.18099 17.1491 3.20658 17.1366C3.23216 17.1241 3.25457 17.106 3.27211 17.0836L5.89711 13.7578C5.9932 13.6359 5.90648 13.4531 5.74945 13.4531Z" fill="black"/>
</svg>
