<svg width="15" height="15" viewBox="0 0 15 15" fill="none" xmlns="http://www.w3.org/2000/svg">
<path d="M15 5.9307C15 5.53393 14.7038 5.21195 14.3381 5.21195C14.3145 5.21195 14.2913 5.2134 14.2685 5.2157L9.69707 5.09476L8.13539 0.521328C8.05666 0.220371 7.80227 0 7.50005 0C7.19752 0 6.94345 0.220371 6.8644 0.521328L5.30239 5.09476L0.73119 5.2157C0.708249 5.21316 0.684878 5.21195 0.661614 5.21195C0.296181 5.21159 0 5.53369 0 5.9307C0 6.18442 0.120734 6.40648 0.302858 6.53442L3.94394 9.42197L2.64473 13.9519C2.59756 14.0501 2.57063 14.1623 2.57063 14.2809C2.57063 14.678 2.86682 15 3.23257 15C3.38745 15 3.53048 14.9415 3.64313 14.8441L7.50038 12.0971L11.3574 14.8441C11.4704 14.9415 11.6128 15 11.768 15C12.1334 15 12.4296 14.678 12.4296 14.2809C12.4296 14.1626 12.4027 14.0506 12.3555 13.9519L11.0564 9.42197L14.6974 6.53442C14.8791 6.40624 15 6.18405 15 5.9307Z" fill="#FFCC4D"/>
</svg>
