<svg width="16" height="16" viewBox="0 0 16 16" fill="none" xmlns="http://www.w3.org/2000/svg">
<g clip-path="url(#clip0_7791_88814)">
<path d="M10.4043 5.11021L9.38925 4.09621L4.31425 9.17021C4.11438 9.37015 3.95584 9.6075 3.8477 9.8687C3.73955 10.1299 3.68392 10.4099 3.68396 10.6926C3.68401 10.9753 3.73974 11.2552 3.84797 11.5164C3.9562 11.7775 4.11481 12.0148 4.31475 12.2147C4.51469 12.4146 4.75204 12.5731 5.01324 12.6813C5.27445 12.7894 5.5544 12.845 5.8371 12.845C6.11981 12.845 6.39974 12.7892 6.66091 12.681C6.92208 12.5728 7.15938 12.4142 7.35925 12.2142L13.4493 6.12521C14.1221 5.45223 14.5001 4.53951 14.5 3.58786C14.4999 2.63621 14.1217 1.72357 13.4487 1.05071C12.7758 0.377859 11.863 -9.37508e-05 10.9114 1.74434e-08C9.95974 9.37856e-05 9.0471 0.378227 8.37425 1.05121L1.98025 7.44421L1.96625 7.45721C0.01125 9.41221 0.01125 12.5802 1.96625 14.5342C3.92125 16.4882 7.08925 16.4882 9.04425 14.5342L9.05725 14.5202L9.05825 14.5212L13.4233 10.1572L12.4082 9.14321L8.04325 13.5062L8.03025 13.5192C6.63825 14.9112 4.37425 14.9112 2.98225 13.5192C2.65021 13.1864 2.38712 12.7914 2.20807 12.3568C2.02901 11.9221 1.93751 11.4564 1.93881 10.9863C1.94011 10.5162 2.03419 10.051 2.21564 9.61736C2.3971 9.18371 2.66237 8.79014 2.99625 8.45921L2.99525 8.45821L9.39025 2.06521C10.2292 1.22521 11.5953 1.22521 12.4353 2.06521C13.2753 2.90521 13.2743 4.27021 12.4353 5.10921L6.34525 11.1982C6.20896 11.3236 6.02951 11.3914 5.84437 11.3876C5.65923 11.3838 5.48272 11.3086 5.35172 11.1777C5.22072 11.0468 5.14534 10.8704 5.14134 10.6853C5.13734 10.5001 5.20502 10.3206 5.33025 10.1842L10.4052 5.10921L10.4043 5.11021Z" fill="black"/>
</g>
<defs>
<clipPath id="clip0_7791_88814">
<rect width="16" height="16" fill="white"/>
</clipPath>
</defs>
</svg>
