<svg width="20" height="20" viewBox="0 0 20 20" fill="none" xmlns="http://www.w3.org/2000/svg">
<path d="M4.60394 1.26301C4.84519 1.31926 5.01644 1.52551 5.01644 1.76551V5.88301C5.01513 5.95196 5.00026 6.01997 4.97267 6.08317C4.94508 6.14637 4.9053 6.20351 4.85562 6.25134C4.80594 6.29916 4.74732 6.33673 4.68312 6.3619C4.61892 6.38706 4.55038 6.39933 4.48144 6.39801C4.41249 6.39933 4.34396 6.38706 4.27975 6.3619C4.21555 6.33673 4.15693 6.29916 4.10725 6.25134C4.05757 6.20351 4.01779 6.14637 3.9902 6.08317C3.96261 6.01997 3.94774 5.95196 3.94644 5.88301V3.22551C3.69413 3.44147 3.41519 3.62421 3.11644 3.76926C2.99023 3.83069 2.8452 3.84106 2.71154 3.79822C2.57788 3.75537 2.4659 3.66261 2.39894 3.53926C2.36795 3.47846 2.34958 3.41202 2.34493 3.34394C2.34027 3.27587 2.34943 3.20755 2.37185 3.1431C2.39427 3.07865 2.42948 3.01939 2.47538 2.9689C2.52128 2.9184 2.57691 2.87771 2.63894 2.84926C3.08019 2.63676 3.42519 2.30926 3.66394 2.02301C3.78952 1.87085 3.9024 1.70864 4.00144 1.53801C4.05836 1.43294 4.14795 1.34927 4.25665 1.29965C4.36536 1.25004 4.48727 1.23717 4.60394 1.26301ZM2.69144 8.82051C2.64204 8.77367 2.60269 8.71727 2.57581 8.65473C2.54892 8.59219 2.53506 8.52483 2.53506 8.45676C2.53506 8.38869 2.54892 8.32133 2.57581 8.25879C2.60269 8.19625 2.64204 8.13984 2.69144 8.09301L2.69394 8.09176V8.08801L2.69894 8.08551L2.70894 8.07551C2.74974 8.03799 2.79273 8.00293 2.83769 7.97051C3.31208 7.61752 3.88762 7.42684 4.47894 7.42676H4.48769C4.88769 7.43176 5.32269 7.53176 5.67144 7.78051C6.04019 8.04301 6.27769 8.45051 6.27769 8.96926C6.27769 9.53426 6.01894 9.92801 5.66769 10.2093C5.40019 10.4255 5.05519 10.588 4.77519 10.7205C4.73019 10.7405 4.68769 10.7618 4.64644 10.7818C4.31269 10.9418 4.06144 11.0818 3.88394 11.2693C3.80714 11.3495 3.74495 11.4426 3.70019 11.5443H5.74394C5.88276 11.5419 6.01685 11.5947 6.11688 11.6909C6.21691 11.7872 6.27473 11.9192 6.27769 12.058C6.27638 12.127 6.26151 12.195 6.23392 12.2582C6.20633 12.3214 6.16655 12.3785 6.11687 12.4263C6.06719 12.4742 6.00857 12.5117 5.94437 12.5369C5.88017 12.5621 5.81163 12.5743 5.74269 12.573H3.07019C3.00124 12.5743 2.93271 12.5621 2.8685 12.5369C2.8043 12.5117 2.74568 12.4742 2.696 12.4263C2.64632 12.3785 2.60654 12.3214 2.57895 12.2582C2.55136 12.195 2.53649 12.127 2.53519 12.058C2.53519 11.4205 2.74769 10.9418 3.09269 10.578C3.41644 10.2343 3.83269 10.0218 4.16769 9.86051C4.22144 9.83551 4.27394 9.81051 4.32269 9.78551C4.61144 9.64801 4.82269 9.54801 4.98394 9.41926C5.13394 9.29801 5.20894 9.17801 5.20894 8.96926C5.20894 8.78426 5.13769 8.68176 5.03394 8.60801C4.86597 8.50402 4.67143 8.45104 4.47394 8.45551C4.10214 8.45728 3.74183 8.58458 3.45144 8.81676L3.44519 8.82301C3.34276 8.91812 3.20797 8.97066 3.06819 8.96997C2.92842 8.96927 2.79416 8.91538 2.69269 8.81926L2.69144 8.82051ZM3.86644 16.1768C3.86906 16.0377 3.92674 15.9054 4.02681 15.8089C4.12687 15.7123 4.26115 15.6594 4.40019 15.6618C4.76769 15.6618 4.97019 15.5618 5.07144 15.4743C5.11652 15.4371 5.1524 15.39 5.17625 15.3366C5.2001 15.2833 5.21129 15.2251 5.20894 15.1668C5.20144 14.9668 5.01144 14.633 4.40019 14.633C3.96019 14.633 3.73144 14.738 3.62769 14.8043C3.59253 14.8255 3.56055 14.8516 3.53269 14.8818L3.52894 14.8868C3.53328 14.8794 3.53745 14.8719 3.54144 14.8643V14.8655L3.53894 14.868L3.53644 14.873L3.53269 14.8805L3.52644 14.8905L3.52894 14.8868C3.45832 15.0025 3.34707 15.0878 3.21694 15.126C3.0868 15.1641 2.94712 15.1523 2.82519 15.093C2.76327 15.0644 2.70776 15.0237 2.66199 14.9731C2.61622 14.9226 2.58114 14.8633 2.55884 14.7989C2.53655 14.7344 2.5275 14.6661 2.53224 14.5981C2.53698 14.5301 2.55541 14.4637 2.58644 14.403V14.4005L2.58894 14.3968L2.59269 14.3893L2.60269 14.373C2.6336 14.3194 2.67005 14.2691 2.71144 14.223C2.78394 14.1393 2.88894 14.0405 3.03519 13.948C3.33269 13.7568 3.77269 13.603 4.40019 13.603C5.50019 13.603 6.24644 14.298 6.27769 15.128C6.29269 15.5068 6.15269 15.8855 5.85394 16.178C6.15144 16.468 6.29269 16.8468 6.27894 17.2255C6.24644 18.0555 5.50144 18.7505 4.40019 18.7505C3.77269 18.7505 3.33269 18.598 3.03519 18.4068C2.87618 18.3054 2.73789 18.1748 2.62769 18.0218C2.61898 18.0082 2.61064 17.9945 2.60269 17.9805L2.59269 17.9643L2.58894 17.958L2.58769 17.9543V17.953L2.58644 17.9518C2.55517 17.8911 2.53651 17.8247 2.53158 17.7565C2.52664 17.6884 2.53554 17.62 2.55773 17.5555C2.57991 17.4909 2.61494 17.4315 2.66068 17.3808C2.70643 17.3301 2.76196 17.2892 2.82394 17.2605C2.94601 17.2008 3.08598 17.1889 3.2164 17.227C3.34683 17.2652 3.45829 17.3507 3.52894 17.4668L3.53269 17.4718C3.54519 17.4843 3.57394 17.5155 3.62769 17.5505C3.73144 17.6168 3.96019 17.7218 4.40019 17.7218C5.01144 17.7218 5.20144 17.3868 5.21019 17.1868C5.21235 17.1286 5.20107 17.0707 5.17722 17.0176C5.15337 16.9645 5.1176 16.9176 5.07269 16.8805C4.97019 16.7905 4.76769 16.6918 4.40019 16.6918C4.26115 16.6941 4.12687 16.6412 4.02681 16.5446C3.92674 16.4481 3.86906 16.3158 3.86644 16.1768ZM9.68644 3.75051C9.4378 3.75051 9.19934 3.84928 9.02352 4.0251C8.84771 4.20091 8.74894 4.43937 8.74894 4.68801C8.74894 4.93665 8.84771 5.17511 9.02352 5.35092C9.19934 5.52674 9.4378 5.62551 9.68644 5.62551H16.5614C16.8101 5.62551 17.0485 5.52674 17.2243 5.35092C17.4002 5.17511 17.4989 4.93665 17.4989 4.68801C17.4989 4.43937 17.4002 4.20091 17.2243 4.0251C17.0485 3.84928 16.8101 3.75051 16.5614 3.75051H9.68644ZM9.68644 8.75051C9.4378 8.75051 9.19934 8.84928 9.02352 9.0251C8.84771 9.20091 8.74894 9.43937 8.74894 9.68801C8.74894 9.93665 8.84771 10.1751 9.02352 10.3509C9.19934 10.5267 9.4378 10.6255 9.68644 10.6255H16.5614C16.8101 10.6255 17.0485 10.5267 17.2243 10.3509C17.4002 10.1751 17.4989 9.93665 17.4989 9.68801C17.4989 9.43937 17.4002 9.20091 17.2243 9.0251C17.0485 8.84928 16.8101 8.75051 16.5614 8.75051H9.68644ZM9.68644 13.7505C9.4378 13.7505 9.19934 13.8493 9.02352 14.0251C8.84771 14.2009 8.74894 14.4394 8.74894 14.688C8.74894 14.9366 8.84771 15.1751 9.02352 15.3509C9.19934 15.5267 9.4378 15.6255 9.68644 15.6255H16.5614C16.8101 15.6255 17.0485 15.5267 17.2243 15.3509C17.4002 15.1751 17.4989 14.9366 17.4989 14.688C17.4989 14.4394 17.4002 14.2009 17.2243 14.0251C17.0485 13.8493 16.8101 13.7505 16.5614 13.7505H9.68644Z" fill="black"/>
</svg>
