<svg width="20" height="20" viewBox="0 0 20 20" fill="none" xmlns="http://www.w3.org/2000/svg">
<path d="M2.91797 13.7481C3.24949 13.7481 3.56743 13.8798 3.80185 14.1142C4.03627 14.3486 4.16797 14.6666 4.16797 14.9981C4.16797 15.3296 4.03627 15.6475 3.80185 15.882C3.56743 16.1164 3.24949 16.2481 2.91797 16.2481C2.58645 16.2481 2.26851 16.1164 2.03409 15.882C1.79966 15.6475 1.66797 15.3296 1.66797 14.9981C1.66797 14.6666 1.79966 14.3486 2.03409 14.1142C2.26851 13.8798 2.58645 13.7481 2.91797 13.7481ZM6.2513 14.1647H17.5038C17.7162 14.165 17.9205 14.2463 18.0749 14.3921C18.2294 14.5379 18.3223 14.7372 18.3348 14.9492C18.3472 15.1613 18.2782 15.3701 18.1419 15.5329C18.0056 15.6958 17.8122 15.8005 17.6013 15.8256L17.5038 15.8314H6.2513C6.03897 15.831 5.83482 15.7495 5.68053 15.6036C5.52625 15.4577 5.43346 15.2585 5.42112 15.0465C5.40879 14.8345 5.47783 14.6258 5.61415 14.4631C5.75047 14.3003 5.94379 14.1956 6.15463 14.1706L6.2513 14.1647H17.5038H6.2513ZM2.91797 8.74807C3.24949 8.74807 3.56743 8.87977 3.80185 9.11419C4.03627 9.34861 4.16797 9.66655 4.16797 9.99807C4.16797 10.3296 4.03627 10.6475 3.80185 10.882C3.56743 11.1164 3.24949 11.2481 2.91797 11.2481C2.58645 11.2481 2.26851 11.1164 2.03409 10.882C1.79966 10.6475 1.66797 10.3296 1.66797 9.99807C1.66797 9.66655 1.79966 9.34861 2.03409 9.11419C2.26851 8.87977 2.58645 8.74807 2.91797 8.74807ZM6.2513 9.16474H17.5038C17.7162 9.16498 17.9205 9.24631 18.0749 9.39211C18.2294 9.53792 18.3223 9.7372 18.3348 9.94924C18.3472 10.1613 18.2782 10.3701 18.1419 10.5329C18.0056 10.6958 17.8122 10.8005 17.6013 10.8256L17.5038 10.8314H6.2513C6.03897 10.831 5.83482 10.7495 5.68053 10.6036C5.52625 10.4577 5.43346 10.2585 5.42112 10.0465C5.40879 9.83453 5.47783 9.62584 5.61415 9.46305C5.75047 9.30026 5.94379 9.19565 6.15463 9.17057L6.2513 9.16474H17.5038H6.2513ZM2.91797 3.75474C3.08478 3.75043 3.25077 3.77957 3.40614 3.84043C3.56152 3.90129 3.70313 3.99264 3.82264 4.1091C3.94215 4.22556 4.03713 4.36477 4.10198 4.51852C4.16683 4.67227 4.20024 4.83745 4.20024 5.00432C4.20024 5.17119 4.16683 5.33637 4.10198 5.49012C4.03713 5.64387 3.94215 5.78308 3.82264 5.89954C3.70313 6.016 3.56152 6.10736 3.40614 6.16822C3.25077 6.22908 3.08478 6.25821 2.91797 6.25391C2.58645 6.25391 2.26851 6.12221 2.03409 5.88779C1.79966 5.65337 1.66797 5.33543 1.66797 5.00391C1.66797 4.67239 1.79966 4.35444 2.03409 4.12002C2.26851 3.8856 2.58645 3.75391 2.91797 3.75391V3.75474ZM6.2513 4.16474H17.5038C17.7162 4.16498 17.9205 4.24631 18.0749 4.39211C18.2294 4.53792 18.3223 4.7372 18.3348 4.94924C18.3472 5.16127 18.2782 5.37006 18.1419 5.53293C18.0056 5.69581 17.8122 5.80049 17.6013 5.82557L17.5038 5.83141H6.2513C6.03769 5.83287 5.83167 5.75224 5.67579 5.60617C5.51992 5.4601 5.42609 5.25975 5.41368 5.04649C5.40128 4.83323 5.47124 4.62335 5.60913 4.46019C5.74701 4.29704 5.94229 4.19306 6.15463 4.16974L6.2513 4.16474H17.5038H6.2513Z" fill="black"/>
</svg>
