<svg width="19" height="19" viewBox="0 0 19 19" fill="none" xmlns="http://www.w3.org/2000/svg">
<path fill-rule="evenodd" clip-rule="evenodd" d="M5.54297 4.7487C5.54297 4.53873 5.62638 4.33737 5.77484 4.18891C5.92331 4.04044 6.12467 3.95703 6.33464 3.95703H10.293C11.1328 3.95703 11.9383 4.29066 12.5321 4.88453C13.126 5.47839 13.4596 6.28385 13.4596 7.1237C13.4596 7.96355 13.126 8.769 12.5321 9.36287C11.9383 9.95673 11.1328 10.2904 10.293 10.2904H7.1263V14.2487C7.1263 14.4587 7.04289 14.66 6.89443 14.8085C6.74596 14.957 6.5446 15.0404 6.33464 15.0404C6.12467 15.0404 5.92331 14.957 5.77484 14.8085C5.62638 14.66 5.54297 14.4587 5.54297 14.2487V4.7487ZM7.1263 8.70703H10.293C10.7129 8.70703 11.1156 8.54022 11.4126 8.24328C11.7095 7.94635 11.8763 7.54362 11.8763 7.1237C11.8763 6.70377 11.7095 6.30104 11.4126 6.00411C11.1156 5.70718 10.7129 5.54036 10.293 5.54036H7.1263V8.70703Z" fill="black"/>
</svg>
