<svg width="18" height="18" viewBox="0 0 18 18" fill="none" xmlns="http://www.w3.org/2000/svg">
<path d="M5.55331 1.78795H11.1074C11.2533 1.78795 11.3716 1.61594 11.3716 1.40374C11.3716 1.19154 11.2533 1.01953 11.1074 1.01953H5.55331C5.40737 1.01953 5.28906 1.19154 5.28906 1.40374C5.28906 1.61594 5.40737 1.78795 5.55331 1.78795Z" fill="#FF0000"/>
<path d="M0.584561 5.54182H6.13858C6.28453 5.54182 6.40283 5.3698 6.40283 5.1576C6.40283 4.9454 6.28453 4.77344 6.13858 4.77344H0.584561C0.438617 4.77344 0.320312 4.9454 0.320312 5.1576C0.320312 5.3698 0.438617 5.54182 0.584561 5.54182Z" fill="#FF0000"/>
<path d="M2.07812 9.49743C2.07812 9.70963 2.19643 9.88169 2.34237 9.88169H7.89639C8.04234 9.88169 8.16064 9.70963 8.16064 9.49743C8.16064 9.28524 8.04234 9.11328 7.89639 9.11328H2.34237C2.19643 9.11328 2.07812 9.28524 2.07812 9.49743Z" fill="#FF0000"/>
<path d="M5.25456 13.9648H0.264248C0.118305 13.9648 0 14.1368 0 14.349C0 14.5612 0.118305 14.7332 0.264248 14.7332H5.25456C5.4005 14.7332 5.51881 14.5612 5.51881 14.349C5.51881 14.1368 5.4005 13.9648 5.25456 13.9648Z" fill="#FF0000"/>
<path d="M14.2326 4.19719C15.0297 4.19719 15.6758 3.25754 15.6758 2.09857C15.6758 0.939588 15.0296 0 14.2326 0C13.4353 0 12.7891 0.939641 12.7891 2.09857C12.789 3.25754 13.4353 4.19719 14.2326 4.19719Z" fill="#FF0000"/>
<path d="M16.6078 3.59449C15.779 5.28238 14.6693 5.47785 13.4751 4.44705C13.3938 4.37698 13.0331 4.08805 12.9532 4.01905C11.0321 2.36083 9.11328 3.01111 7.82643 5.63135C7.27959 6.74579 8.54434 7.80213 9.08505 6.70067C9.74993 5.34688 10.5954 4.95515 11.52 5.38395C11.0466 6.57882 10.6326 7.76645 10.0486 9.45375C9.46436 11.1411 8.17448 12.4885 6.93508 11.4346C6.04078 10.6746 5.23431 12.5427 6.12591 13.3003C7.81798 14.7382 9.80197 13.8552 10.8148 11.9862C10.8499 12.0135 10.887 12.0381 10.9278 12.0588C11.7552 12.4779 12.8398 13.5938 13.1703 13.9893C13.5006 14.3848 14.0683 16.3995 14.4054 17.4118C14.8143 18.6401 16.135 17.7455 15.7245 16.512C15.3424 15.3634 14.701 13.0712 14.2008 12.4913C13.7995 12.0261 13.0204 11.1605 12.3596 10.6694C12.8066 9.41035 13.2721 8.16488 13.7621 6.94093C15.3241 7.63677 16.8087 6.8171 17.8661 4.66354C18.4134 3.54926 17.1489 2.49293 16.6078 3.59449Z" fill="#FF0000"/>
</svg>
