<svg width="22" height="17" viewBox="0 0 22 17" fill="none" xmlns="http://www.w3.org/2000/svg">
<path d="M6 0.6C3.01766 0.6 0.6 3.01766 0.6 6V11C0.6 13.9823 3.01766 16.4 6 16.4H16C18.9823 16.4 21.4 13.9823 21.4 11V6C21.4 3.01766 18.9823 0.6 16 0.6H6Z" fill="white" stroke="black" stroke-width="0.8"/>
<path d="M19 4.64844L15.25 6.77246V6.1554C15.25 5.38427 14.6149 4.74915 13.8438 4.74915H5.40625C4.63513 4.74915 4 5.38427 4 6.1554V10.8429C4 11.614 4.63513 12.2491 5.40625 12.2491H13.8438C14.6149 12.2491 15.25 11.614 15.25 10.8429V10.2258L19 12.3499V4.64844ZM5.40625 5.68665H13.8438C14.1076 5.68665 14.3125 5.89152 14.3125 6.1554V10.8429C14.3125 11.1068 14.1076 11.3116 13.8438 11.3116H5.40625C5.14237 11.3116 4.9375 11.1068 4.9375 10.8429V6.1554C4.9375 5.89152 5.14237 5.68665 5.40625 5.68665ZM18.0625 6.2561V10.7422L15.25 9.14734V7.85095L18.0625 6.2561Z" fill="black"/>
</svg>
