<svg width="22" height="22" viewBox="0 0 22 22" fill="none" xmlns="http://www.w3.org/2000/svg">
<path d="M6.59922 8.79922C6.59922 8.50748 6.71511 8.22769 6.9214 8.0214C7.12769 7.81511 7.40748 7.69922 7.69922 7.69922H10.9992C11.291 7.69922 11.5707 7.81511 11.777 8.0214C11.9833 8.22769 12.0992 8.50748 12.0992 8.79922V13.1992C12.0992 13.491 11.9833 13.7707 11.777 13.977C11.5707 14.1833 11.291 14.2992 10.9992 14.2992H7.69922C7.40748 14.2992 7.12769 14.1833 6.9214 13.977C6.71511 13.7707 6.59922 13.491 6.59922 13.1992V8.79922ZM13.1992 9.89922L14.4598 8.63862C14.5367 8.56157 14.6347 8.50905 14.7414 8.48771C14.8481 8.46637 14.9587 8.47717 15.0593 8.51875C15.1599 8.56032 15.2459 8.63079 15.3064 8.72125C15.3669 8.81171 15.3992 8.91809 15.3992 9.02692V12.9715C15.3992 13.0803 15.3669 13.1867 15.3064 13.2772C15.2459 13.3676 15.1599 13.4381 15.0593 13.4797C14.9587 13.5213 14.8481 13.5321 14.7414 13.5107C14.6347 13.4894 14.5367 13.4369 14.4598 13.3598L13.1992 12.0992V9.89922ZM10.9992 2.19922C12.3281 2.19999 13.6396 2.50172 14.8353 3.08179C16.0309 3.66185 17.0796 4.50518 17.9028 5.54848C18.7259 6.59179 19.3021 7.80797 19.588 9.10576C19.874 10.4036 19.8622 11.7493 19.5538 13.0419C19.2453 14.3345 18.6481 15.5405 17.8069 16.5693C16.9658 17.5981 15.9025 18.4231 14.697 18.9823C13.4914 19.5414 12.1749 19.8203 10.8461 19.798C9.5174 19.7756 8.21098 19.4526 7.02492 18.8532L6.89182 18.7817L2.88232 19.7827C2.80515 19.8021 2.7247 19.8046 2.64651 19.7898C2.56831 19.7751 2.49424 19.7436 2.4294 19.6975C2.36457 19.6514 2.31051 19.5918 2.27096 19.5227C2.23141 19.4537 2.20731 19.3769 2.20032 19.2976V19.2074L2.21572 19.1161L3.21672 15.1077L3.14742 14.9757C2.64404 13.9848 2.33418 12.907 2.23442 11.8L2.20692 11.3798L2.19922 10.9992C2.19922 8.66531 3.12636 6.427 4.77668 4.77668C6.427 3.12636 8.66531 2.19922 10.9992 2.19922ZM10.9992 3.29922C9.65553 3.299 8.33517 3.65041 7.16935 4.31852C6.00354 4.98664 5.03285 5.9482 4.35375 7.10765C3.67465 8.2671 3.31078 9.58408 3.2983 10.9277C3.28582 12.2713 3.62517 13.5949 4.28262 14.7667C4.33366 14.8578 4.3577 14.9616 4.35192 15.0659L4.33652 15.1693L3.50492 18.4924L6.83132 17.663C6.89894 17.6463 6.96911 17.6426 7.03812 17.652L7.13822 17.6751L7.23392 17.718C8.2606 18.2928 9.40534 18.6246 10.5802 18.688C11.7551 18.7514 12.929 18.5448 14.0115 18.0839C15.0941 17.6229 16.0567 16.9201 16.8253 16.0292C17.5939 15.1383 18.1481 14.0832 18.4454 12.9447C18.7427 11.8063 18.7752 10.6149 18.5402 9.46195C18.3053 8.30903 17.8093 7.22527 17.0903 6.2939C16.3713 5.36253 15.4485 4.60832 14.3926 4.0892C13.3367 3.57007 12.1758 3.29982 10.9992 3.29922Z" fill="black"/>
</svg>
