<svg width="22" height="22" viewBox="0 0 22 22" fill="none" xmlns="http://www.w3.org/2000/svg">
<path d="M19.6654 10.9987C19.6654 15.7852 15.7852 19.6654 10.9987 19.6654C6.21223 19.6654 2.33203 15.7852 2.33203 10.9987C2.33203 6.21223 6.21223 2.33203 10.9987 2.33203C15.7852 2.33203 19.6654 6.21223 19.6654 10.9987Z" stroke="black" stroke-linejoin="round"/>
<path d="M10.2357 10.9993C11.4548 10.9993 12.3746 10.0796 12.3746 8.86044C12.3746 7.64127 11.4548 6.72155 10.2357 6.72155C9.01651 6.72155 8.09679 7.64127 8.09679 8.86044C8.09679 10.0796 9.01651 10.9993 10.2357 10.9993ZM10.2357 7.79099C10.8656 7.79099 11.3051 8.23054 11.3051 8.86044C11.3051 9.49034 10.8656 9.92988 10.2357 9.92988C9.60577 9.92988 9.16623 9.49034 9.16623 8.86044C9.16623 8.23054 9.60577 7.79099 10.2357 7.79099ZM10.7704 11.534H9.70095C8.22673 11.534 7.02734 12.7334 7.02734 14.2077V14.7424H8.09679V14.2077C8.09679 13.3232 8.81652 12.6035 9.70095 12.6035H10.7704C11.6548 12.6035 12.3746 13.3232 12.3746 14.2077V14.7424H13.444V14.2077C13.444 12.7334 12.2446 11.534 10.7704 11.534ZM15.7775 5.99219L15.0214 6.74828C15.7278 7.45572 16.1176 8.39576 16.1176 9.39516C16.1176 10.3946 15.7278 11.3346 15.0214 12.042L15.7775 12.7981C16.6866 11.8886 17.1871 10.6801 17.1871 9.39516C17.1871 8.11022 16.6866 6.90175 15.7775 5.99219Z" fill="black"/>
<path d="M14.2639 7.50391L13.5078 8.26107C13.811 8.56319 13.9778 8.96584 13.9778 9.39468C13.9778 9.82353 13.811 10.2262 13.5078 10.5283L14.2639 11.2855C14.7687 10.7807 15.0473 10.1096 15.0473 9.39468C15.0473 8.67976 14.7687 8.00868 14.2639 7.50391Z" fill="black"/>
</svg>
